<?xml version="1.0" standalone="no"?>
<!DOCTYPE svg PUBLIC "-//W3C//DTD SVG 20010904//EN"
 "http://www.w3.org/TR/2001/REC-SVG-20010904/DTD/svg10.dtd">
<svg version="1.0" xmlns="http://www.w3.org/2000/svg"
 width="600.000000pt" height="600.000000pt" viewBox="0 0 600.000000 600.000000"
 preserveAspectRatio="xMidYMid meet">
<metadata>
Created by potrace 1.11, written by Peter Selinger 2001-2013
</metadata>
<g transform="translate(0.000000,600.000000) scale(0.100000,-0.100000)"
fill="#000000" stroke="none">
<path d="M0 3000 l0 -3000 3000 0 3000 0 0 3000 0 3000 -3000 0 -3000 0 0
-3000z m3199 1610 c124 -13 252 -49 346 -98 96 -49 220 -174 263 -262 43 -87
72 -208 72 -294 0 -114 3 -116 165 -116 108 0 137 -3 149 -16 14 -13 16 -56
16 -319 0 -345 2 -335 -77 -335 -83 0 -83 0 -83 256 0 262 4 254 -111 254 -77
0 -80 -2 -129 -105 -51 -107 -166 -218 -290 -279 -133 -65 -225 -86 -400 -93
-80 -3 -153 -10 -162 -15 -16 -8 -18 -29 -18 -233 0 -212 1 -225 19 -235 13
-6 180 -10 475 -10 l455 0 15 -22 c9 -12 16 -38 16 -58 0 -20 -7 -46 -16 -58
l-15 -22 -455 0 c-295 0 -462 -4 -475 -10 -18 -10 -19 -26 -19 -495 l0 -484
22 -15 c18 -13 53 -16 170 -16 135 0 148 -2 158 -19 17 -33 12 -99 -10 -121
-19 -19 -33 -20 -423 -20 -313 0 -407 3 -421 13 -22 16 -31 83 -17 119 l11 28
149 0 c207 0 196 -12 196 208 0 128 -3 173 -14 185 -12 15 -50 17 -362 17
-336 0 -350 1 -369 20 -14 14 -20 33 -20 63 0 73 5 76 176 79 110 2 156 7 167
17 15 12 17 62 17 532 0 457 -2 519 -16 533 -13 13 -43 16 -169 16 -148 0
-154 1 -169 22 -9 12 -16 38 -16 58 0 20 7 46 16 58 15 21 21 22 169 22 126 0
156 3 169 16 14 14 16 76 16 534 l0 519 -22 15 c-18 13 -53 16 -175 16 -140 0
-153 2 -163 19 -17 33 -12 99 10 121 19 19 33 20 549 20 294 0 574 -5 630 -10z
m-2573 -1508 c6 -4 28 -33 48 -64 20 -32 40 -58 44 -58 5 0 27 30 50 66 39 61
44 65 75 62 l32 -3 3 -151 c2 -134 1 -152 -14 -158 -9 -4 -25 -4 -35 -1 -17 6
-19 18 -19 101 0 52 -3 94 -8 94 -4 0 -22 -25 -40 -55 -18 -30 -37 -55 -42
-55 -6 0 -26 25 -46 55 -20 30 -40 52 -45 49 -5 -3 -9 -46 -9 -95 0 -71 -3
-91 -15 -95 -8 -4 -22 -1 -30 6 -12 10 -15 41 -15 155 0 78 3 145 7 148 9 9
45 9 59 -1z m490 0 c6 -4 26 -33 45 -64 18 -32 37 -58 42 -58 4 0 25 27 45 60
36 59 65 79 97 66 13 -5 15 -29 13 -158 l-3 -153 -25 0 c-25 0 -25 1 -28 98
-1 53 -6 97 -11 97 -5 0 -26 -28 -49 -61 l-40 -61 -43 63 -44 64 -3 -97 c-2
-86 -5 -98 -22 -103 -11 -3 -24 -3 -30 0 -11 7 -14 297 -3 308 9 9 45 9 59 -1z
m3687 -7 c8 -8 25 -30 37 -50 12 -19 25 -35 28 -35 4 0 20 20 35 45 28 44 57
61 92 53 13 -2 9 -14 -24 -60 -67 -96 -67 -87 -11 -172 29 -44 45 -78 39 -82
-22 -13 -60 8 -89 51 -17 24 -34 46 -39 49 -5 3 -23 -16 -40 -43 -33 -50 -47
-61 -83 -61 -25 0 -21 12 32 90 22 32 40 66 40 76 0 9 -20 45 -45 81 -25 35
-45 66 -45 68 0 12 60 3 73 -10z m404 -15 c8 -14 27 -62 44 -108 17 -45 34
-80 39 -77 4 2 22 46 40 97 39 109 45 118 76 118 34 0 31 -15 -35 -175 -56
-135 -59 -140 -87 -140 -28 0 -31 5 -90 150 -34 83 -59 154 -57 158 10 17 58
1 70 -23z"/>
<path d="M2570 4454 c-40 -16 -40 -20 -40 -546 0 -495 1 -509 20 -528 19 -19
33 -20 319 -20 223 0 321 4 386 15 157 28 289 98 362 193 38 51 40 65 13 92
-19 19 -33 20 -339 20 -370 0 -351 5 -351 -93 0 -87 -16 -107 -84 -107 -28 0
-57 5 -64 12 -17 17 -17 319 0 336 9 9 123 12 451 12 283 0 445 4 458 10 16 9
19 22 19 80 0 255 -146 433 -411 501 -75 19 -117 22 -404 25 -176 2 -327 1
-335 -2z"/>
<path d="M2546 3178 c-14 -20 -16 -86 -16 -528 0 -278 4 -510 8 -516 15 -23
53 -34 120 -34 54 0 75 4 93 19 l24 19 0 517 c0 603 14 545 -126 545 -79 0
-89 -2 -103 -22z"/>
</g>
</svg>
