<?xml version="1.0" standalone="no"?>
<!DOCTYPE svg PUBLIC "-//W3C//DTD SVG 20010904//EN"
 "http://www.w3.org/TR/2001/REC-SVG-20010904/DTD/svg10.dtd">
<svg version="1.0" xmlns="http://www.w3.org/2000/svg"
 width="700.000000pt" height="700.000000pt" viewBox="0 0 700.000000 700.000000"
 preserveAspectRatio="xMidYMid meet">
<metadata>
Created by potrace 1.11, written by Peter Selinger 2001-2013
</metadata>
<g transform="translate(0.000000,700.000000) scale(0.100000,-0.100000)"
fill="#000000" stroke="none">
<path d="M3119 5442 c-207 -147 -449 -319 -538 -382 -88 -63 -302 -215 -474
-337 -171 -122 -343 -245 -382 -272 -38 -28 -124 -88 -190 -135 -66 -46 -154
-109 -195 -139 -41 -29 -210 -150 -375 -267 -165 -117 -313 -224 -328 -239
-42 -39 -68 -106 -68 -174 0 -71 36 -142 95 -190 23 -18 284 -206 581 -417
662 -470 1311 -932 1840 -1309 220 -157 407 -285 415 -285 8 0 220 146 470
325 250 179 484 345 520 370 467 329 1834 1308 1864 1335 101 94 104 246 8
342 -21 20 -170 131 -332 246 -162 115 -545 387 -850 605 -305 217 -598 425
-650 462 -217 154 -861 612 -933 664 -43 31 -83 58 -90 60 -7 3 -181 -115
-388 -263z m537 -18 c76 -54 144 -102 149 -107 10 -8 1059 -757 1102 -787 12
-8 255 -182 540 -386 285 -204 537 -384 559 -400 146 -102 245 -177 259 -196
19 -29 19 -67 0 -96 -13 -17 -314 -239 -500 -368 -16 -11 -397 -283 -845 -604
-448 -321 -828 -593 -845 -604 -16 -12 -148 -105 -292 -209 -144 -103 -269
-190 -278 -193 -9 -4 -23 0 -33 9 -14 12 -1867 1338 -1942 1389 -43 30 -624
446 -643 461 -9 8 -46 34 -81 58 -85 58 -106 105 -71 157 9 12 339 252 733
534 394 282 769 550 832 595 63 46 124 89 135 97 11 8 182 130 380 272 198
141 380 272 405 289 25 17 96 69 159 114 63 45 120 80 127 77 6 -2 74 -48 150
-102z"/>
<path d="M2833 4631 c-14 -10 -9 -125 5 -131 7 -3 69 -5 138 -4 107 1 124 -1
125 -15 1 -9 2 -180 3 -381 l1 -365 -139 -5 -139 -5 0 -65 0 -65 136 -3 c76
-1 138 -6 138 -10 3 -21 4 -730 1 -744 -3 -14 -20 -16 -120 -16 -65 0 -126 -1
-137 -1 -18 -1 -20 -8 -20 -68 l0 -68 270 -3 c149 -1 275 -4 280 -6 8 -3 13
-224 6 -268 -1 -4 -45 -7 -98 -7 -54 1 -116 0 -138 0 l-41 -1 1 -68 0 -67 350
0 350 0 0 68 0 67 -40 1 c-22 0 -85 1 -140 2 l-100 2 0 410 0 410 350 0 350 0
3 71 3 70 -351 0 c-192 -1 -351 1 -351 4 -5 20 -3 212 1 215 4 2 64 5 135 6
80 1 148 7 180 16 161 47 294 174 350 332 l13 37 -69 -1 c-64 -1 -99 -14 -99
-37 0 -13 -58 -86 -95 -120 -16 -15 -55 -39 -85 -55 l-55 -28 -277 -3 c-225
-3 -278 -1 -279 10 -4 63 -1 737 3 744 9 14 508 9 555 -6 62 -19 115 -48 159
-88 45 -40 98 -128 109 -179 l7 -33 -349 -2 -348 -3 0 -190 0 -190 60 2 c33 0
65 1 70 2 7 1 10 46 10 121 l-1 120 393 0 c307 0 393 -3 394 -12 0 -7 1 -87 2
-178 l2 -165 68 -2 c37 -1 67 2 68 5 0 4 1 116 2 250 l2 242 -113 0 c-81 0
-114 3 -116 13 -36 119 -55 167 -88 215 -75 108 -161 169 -303 213 -30 10
-164 13 -517 14 -263 1 -481 -1 -485 -4z m552 -1237 l0 -180 -22 4 c-15 3 -23
-1 -23 -10 0 -22 11 -28 29 -19 13 7 16 3 17 -25 1 -27 -2 -34 -18 -34 -10 0
-21 -7 -25 -15 -7 -19 -1 -26 23 -29 29 -4 25 -50 -4 -54 -33 -5 -27 -47 6
-46 16 0 21 -4 17 -13 -3 -8 -5 -21 -5 -29 0 -8 -9 -14 -20 -14 -13 0 -20 -7
-20 -20 0 -13 7 -20 20 -20 11 0 20 -3 21 -7 0 -5 2 -16 4 -26 2 -11 -1 -16
-8 -14 -7 3 -26 -4 -44 -15 -29 -17 -32 -17 -41 -3 -4 9 -17 18 -28 19 -21 3
-27 40 -6 42 6 1 17 2 22 3 6 0 10 10 10 21 0 19 -9 24 -36 21 -20 -2 -10 44
11 49 28 8 26 44 -2 48 -29 4 -27 45 2 52 11 3 20 12 20 20 0 8 -9 17 -20 20
-15 4 -20 14 -21 38 0 26 3 31 17 27 9 -3 19 1 22 9 7 17 -1 26 -22 26 -12 0
-16 10 -17 35 0 25 3 34 12 31 16 -6 39 20 25 28 -5 3 -16 4 -23 1 -11 -4 -14
4 -14 35 0 29 4 39 15 37 7 -1 16 4 18 11 3 7 -3 12 -14 12 -17 0 -19 8 -17
83 1 45 2 83 3 85 0 2 31 2 68 0 l67 -3 1 -181z"/>
<path d="M3305 3540 c3 -5 8 -10 11 -10 2 0 4 5 4 10 0 6 -5 10 -11 10 -5 0
-7 -4 -4 -10z"/>
<path d="M3260 3489 c0 -5 5 -7 10 -4 6 3 10 8 10 11 0 2 -4 4 -10 4 -5 0 -10
-5 -10 -11z"/>
<path d="M3350 3489 c0 -5 5 -7 10 -4 6 3 10 8 10 11 0 2 -4 4 -10 4 -5 0 -10
-5 -10 -11z"/>
<path d="M3306 3451 c-4 -5 -2 -12 3 -15 5 -4 12 -2 15 3 4 5 2 12 -3 15 -5 4
-12 2 -15 -3z"/>
<path d="M3346 3401 c-3 -5 1 -11 9 -15 9 -3 15 0 15 9 0 16 -16 20 -24 6z"/>
<path d="M3305 3360 c-4 -6 -3 -16 3 -22 6 -6 12 -6 17 2 4 6 3 16 -3 22 -6 6
-12 6 -17 -2z"/>
<path d="M3347 3305 c-8 -18 11 -31 25 -17 11 11 3 32 -12 32 -4 0 -10 -7 -13
-15z"/>
<path d="M3300 3250 c0 -13 5 -18 15 -14 8 4 15 12 15 20 0 8 -7 14 -15 14 -8
0 -15 -9 -15 -20z"/>
<path d="M3300 3170 c-13 -8 -13 -11 1 -25 13 -14 17 -14 27 -2 16 19 -7 40
-28 27z"/>
<path d="M3301 3076 c-14 -17 -7 -36 14 -36 22 0 29 20 13 36 -13 13 -16 13
-27 0z"/>
<path d="M3294 2975 c-4 -9 -2 -21 4 -27 15 -15 44 -1 40 19 -4 23 -36 29 -44
8z"/>
<path d="M3301 2890 c-20 -12 -8 -45 17 -48 18 -3 22 1 22 21 0 27 -19 40 -39
27z"/>
<path d="M1510 3653 c-13 -3 -15 -26 -13 -141 0 -75 2 -143 2 -149 1 -8 14
-13 31 -13 34 0 33 -1 30 125 l-1 70 33 -47 c18 -26 38 -55 44 -65 10 -16 16
-11 53 46 22 35 41 58 42 50 1 -8 1 -51 1 -96 l0 -83 34 0 34 0 1 58 c0 68 0
223 0 237 -1 6 -18 9 -39 7 -34 -3 -42 -10 -76 -64 l-38 -60 -35 53 c-20 30
-39 57 -43 62 -8 9 -40 15 -60 10z"/>
<path d="M1959 3636 c0 -12 -1 -79 -2 -151 l0 -130 31 -3 c31 -3 32 -2 33 40
1 24 1 64 0 91 -1 55 8 59 34 15 10 -18 26 -44 36 -56 l18 -24 40 61 c21 33
41 55 43 48 2 -6 3 -49 2 -94 l-2 -83 34 0 33 0 3 113 c4 148 -2 192 -24 191
-10 -1 -26 -2 -35 -3 -10 -1 -35 -28 -56 -63 l-39 -62 -34 54 c-18 30 -35 58
-36 63 -2 4 -20 9 -41 10 -31 3 -37 0 -38 -17z"/>
<path d="M4855 3650 c-2 -4 16 -36 40 -73 25 -36 45 -69 45 -73 0 -4 -22 -40
-50 -81 l-50 -73 39 0 c36 0 42 4 71 50 18 28 33 50 35 50 2 0 17 -22 35 -50
30 -46 35 -50 71 -50 l40 0 -51 75 c-27 41 -50 77 -50 81 0 3 19 34 43 68 62
87 61 84 24 80 -17 -1 -37 -3 -42 -3 -6 -1 -19 -17 -29 -36 -31 -57 -41 -60
-65 -23 -11 18 -25 39 -29 46 -10 14 -70 23 -77 12z"/>
<path d="M5241 3650 c-8 -5 80 -243 107 -290 5 -8 20 -15 34 -15 30 -2 27 -7
100 174 51 129 51 149 3 135 -27 -8 -28 -10 -55 -89 -48 -141 -41 -140 -85
-21 -35 95 -40 105 -66 108 -16 3 -33 2 -38 -2z"/>
</g>
</svg>
