<?xml version="1.0" encoding="utf-8"?>
<!-- Generator: Adobe Illustrator 22.0.1, SVG Export Plug-In . SVG Version: 6.00 Build 0)  -->
<svg version="1.1" id="Layer_1" xmlns="http://www.w3.org/2000/svg" xmlns:xlink="http://www.w3.org/1999/xlink" x="0px" y="0px"
	 viewBox="0 0 260 260" style="enable-background:new 0 0 260 260;" xml:space="preserve">
<style type="text/css">
	.st0{fill:#EF9230;}
	.st1{fill:#3F3F3F;}
</style>
<g>
	<g>
		<g>
			<g>
				<polygon class="st0" points="48.1,128.8 44.5,123.3 41.4,123.3 41.4,136.7 44.1,136.7 44.1,128 48.1,133.5 48.1,133.5 
					51.6,127.6 51.6,136.7 54.8,136.7 54.8,123.3 51.6,123.3 				"/>
			</g>
			<g>
				<polygon class="st0" points="68.5,128.8 65,123.3 61.5,123.3 61.5,136.7 64.6,136.7 64.6,128 68.2,133.5 68.5,133.5 72.1,127.6 
					72.1,136.7 75.2,136.7 75.2,123.3 72.1,123.3 				"/>
			</g>
		</g>
	</g>
	<g>
		<g>
			<g>
				<polygon class="st0" points="202.1,123.3 198.5,123.3 195.8,127.6 193,123.3 189.5,123.3 194.2,129.6 189.5,136.7 192.6,136.7 
					195.8,132 198.9,136.7 202.5,136.7 197.8,129.6 				"/>
			</g>
			<g>
				<polygon class="st0" points="213.5,132.8 210,123.3 206.4,123.3 211.9,136.7 214.7,136.7 220.2,123.3 217.1,123.3 				"/>
			</g>
		</g>
	</g>
	<g>
		<g>
			<circle class="st1" cx="121.7" cy="158" r="1.2"/>
			<circle class="st1" cx="121.7" cy="153.6" r="1.2"/>
			<circle class="st1" cx="121.7" cy="149.3" r="1.2"/>
			<circle class="st1" cx="121.7" cy="145" r="1.2"/>
			<circle class="st1" cx="121.7" cy="141" r="0.8"/>
			<circle class="st1" cx="121.7" cy="136.7" r="0.8"/>
			<circle class="st1" cx="121.7" cy="132.4" r="0.8"/>
			<circle class="st1" cx="121.7" cy="128" r="0.4"/>
			<circle class="st1" cx="123.7" cy="143" r="0.8"/>
			<circle class="st1" cx="119.8" cy="143" r="0.8"/>
			<circle class="st1" cx="123.7" cy="138.7" r="0.8"/>
			<circle class="st1" cx="119.8" cy="138.7" r="0.8"/>
			<circle class="st1" cx="123.7" cy="134.3" r="0.8"/>
			<circle class="st1" cx="119.8" cy="134.3" r="0.8"/>
			<circle class="st1" cx="123.7" cy="130" r="0.4"/>
			<circle class="st1" cx="119.8" cy="130" r="0.4"/>
			<path class="st1" d="M161.9,99.7c-1.2-11.4-11-20.1-22.5-20.1h-39.4v6.3h12.2v33.9h-12.2v6.3h12.2v33.9h-12.2v6.3h24.8v12.2
				h-12.2v6.3h31.1v-6.3h-12.2v-36.6h31.1v-6.3h-31.1v-9.8h8.7c10.2,0,18.9-7.5,21.7-16.9h-6.7c-2.8,6.3-8.7,10.6-15.4,10.6H119
				V85.5h20.9c8.3,0,15,5.9,16.2,13.8h-31.1v16.9h6.3V106h35.1v15.8h6.3V99.7H161.9z M124.9,126.1v20.9c0-0.4-0.4-0.8-0.8-0.8
				c-0.4,0-1.2,0.4-1.2,1.2c0,0.4,0.4,1.2,1.2,1.2c0.4,0,0.8-0.4,0.8-0.8v3.2c0-0.4-0.4-0.4-0.8-0.4c-0.8,0-1.2,0.4-1.2,1.2
				c0,0.8,0.4,1.2,1.2,1.2c0.4,0,0.8-0.4,0.8-0.4v3.2c-0.4-0.4-0.4-0.4-0.8-0.4c-0.8,0-1.2,0.4-1.2,1.2c0,0.8,0.4,1.2,1.2,1.2
				c0.4,0,0.8-0.4,0.8-0.4v2.4c-0.4-0.4-0.4-0.4-0.8-0.4c-0.8,0-1.2,0.8-1.2,1.2h-1.6c0-0.8-0.8-1.2-1.2-1.2s-0.8,0-0.8,0.4v-2.4
				c0.4,0.4,0.4,0.4,0.8,0.4c0.8,0,1.2-0.4,1.2-1.2c0-0.8-0.4-1.2-1.2-1.2c-0.4,0-0.8,0-0.8,0.4v-2.8c0.4,0.4,0.4,0.4,0.8,0.4
				c0.8,0,1.2-0.4,1.2-1.2c0-0.8-0.4-1.2-1.2-1.2c-0.4,0-0.8,0.4-0.8,0.4v-3.2c0,0.4,0.4,0.8,0.8,0.8c0.4,0,1.2-0.4,1.2-1.2
				c0-0.4-0.4-1.2-1.2-1.2c-0.4,0-0.8,0.4-0.8,0.8v-20.9h5.5V126.1z"/>
		</g>
		<path class="st1" d="M254.9,120.5L130,31.9L5.1,120.5C2,122.5,0,126.1,0,130s2,7.5,5.1,9.5L130,228.1l124.9-88.6
			c3.2-2,5.1-5.5,5.1-9.5S258,122.5,254.9,120.5z M251.3,133.5L130,220.2L8.7,133.5c-1.2-0.8-2-2-2-3.5s0.8-2.8,2-3.5L130,39.8
			l121.3,86.7c1.2,0.8,2,2,2,3.5C253.3,131.2,252.5,132.8,251.3,133.5z"/>
	</g>
</g>
</svg>
