<?xml version="1.0" encoding="utf-8"?>
<!-- Generator: Adobe Illustrator 22.0.1, SVG Export Plug-In . SVG Version: 6.00 Build 0)  -->
<svg version="1.1" id="Layer_1" xmlns="http://www.w3.org/2000/svg" xmlns:xlink="http://www.w3.org/1999/xlink" x="0px" y="0px"
	 viewBox="0 0 260 260" style="enable-background:new 0 0 260 260;" xml:space="preserve">
<style type="text/css">
	.st0{fill:#404040;}
	.st1{fill:#FFFFFF;}
</style>
<rect class="st0" width="260" height="260"/>
<g>
	<g>
		<path class="st1" d="M39.5,125.2h-1.5c-0.5,0-1,0.3-1.3,0.7l-2.7,4.3c-0.2,0.4-0.6,0.4-0.9,0l-2.7-4.3c-0.2-0.4-0.8-0.7-1.3-0.7
			h-1.3c-0.5,0-0.8,0.4-0.8,0.8v11.7c0,0.5,0.4,0.8,0.8,0.8h1.1c0.5,0,0.8-0.4,0.8-0.8v-6.9c0-0.5,0.2-0.5,0.5-0.1l2.9,4.3
			c0.3,0.4,0.7,0.4,0.9,0l2.9-4.4c0.2-0.4,0.5-0.3,0.5,0.1v7c0,0.5,0.4,0.8,0.8,0.8h1.3c0.5,0,0.8-0.4,0.8-0.8V126
			C40.3,125.5,39.9,125.2,39.5,125.2z M59.7,125.2h-1.5c-0.5,0-1,0.3-1.3,0.7l-2.7,4.3c-0.2,0.4-0.6,0.4-0.9,0l-2.5-4.3
			c-0.2-0.4-0.8-0.7-1.3-0.7H48c-0.5,0-0.8,0.4-0.8,0.8v11.7c0,0.5,0.4,0.8,0.8,0.8h1.1c0.5,0,0.8-0.4,0.8-0.8v-6.9
			c0-0.5,0.2-0.5,0.5-0.1l2.9,4.3c0.3,0.4,0.7,0.4,0.9,0l2.9-4.4c0.2-0.4,0.5-0.3,0.5,0.1v7c0,0.5,0.4,0.8,0.8,0.8h1.3
			c0.5,0,0.8-0.4,0.8-0.8V126C60.5,125.5,60.1,125.2,59.7,125.2z M208.5,132.3c-0.3-0.4-0.2-1,0-1.4l3.5-5.1
			c0.3-0.4,0.1-0.7-0.4-0.7h-1.7c-0.5,0-1,0.3-1.3,0.7l-2,3c-0.3,0.4-0.7,0.4-0.9,0l-1.9-3c-0.2-0.4-0.8-0.7-1.3-0.7h-1.7
			c-0.5,0-0.6,0.3-0.4,0.7l3.5,5.2c0.3,0.4,0.3,1,0,1.4l-3.7,5.4c-0.3,0.4-0.1,0.7,0.4,0.7h1.7c0.5,0,1-0.3,1.3-0.7l2.1-3.2
			c0.2-0.4,0.7-0.4,0.9,0l2.1,3.2c0.2,0.4,0.8,0.7,1.3,0.7h1.7c0.5,0,0.6-0.3,0.4-0.7L208.5,132.3z M229.4,125.2h-1.5
			c-0.5,0-1,0.4-1.1,0.8l-2.8,7.9c-0.2,0.4-0.4,0.4-0.6,0l-3-7.9c-0.2-0.4-0.7-0.8-1.1-0.8h-1.6c-0.5,0-0.7,0.3-0.5,0.8l4.8,11.9
			c0.2,0.4,0.7,0.8,1.1,0.8h0.9c0.5,0,1-0.3,1.1-0.8l4.8-11.9C230.1,125.5,229.9,125.2,229.4,125.2z M176.9,94.7h-9.4
			c-1.2,0-2.1-1-2.1-2.1c0-0.2,0-0.4,0-0.6c0-15.5-8.5-22.7-15.7-26c-6.7-3.1-13.6-3.6-17.1-3.6H89c-1.2,0-2.1,0.9-2.1,2.1v2.8
			c0,1.2,0.9,2.1,2.1,2.1h11.2c1.2,0,2.1,0.9,2.1,2.1v41.1c0,1.2-0.9,2.1-2.1,2.1H89c-1.2,0-2.1,0.9-2.1,2.1v2.8
			c0,1.2,0.9,2.1,2.1,2.1h11.2c1.2,0,2.1,0.9,2.1,2.1v41.1c0,1.2-0.9,2.1-2.1,2.1H89.3c-1.2,0-2.1,0.9-2.1,2.1v2.8
			c0,1.2,0.9,2.1,2.1,2.1h27.6c1.2,0,2.1,0.9,2.1,2.1v12.6c0,1.2-0.9,2.1-2.1,2.1h-10.8c-1.2,0-2.1,0.9-2.1,2.1v2.8
			c0,1.2,0.9,2.1,2.1,2.1h32.8c1.2,0,2.1-0.9,2.1-2.1v-2.8c0-1.2-0.9-2.1-2.1-2.1h-10.8c-1.2,0-2.1-0.9-2.1-2.1v-37.8
			c0-1.2,0.9-2.1,2.1-2.1h36.6c1.2,0,2.1-0.9,2.1-2.1v-2.8c0-1.2-0.9-2.1-2.1-2.1h-36.6c-1.2,0-2.1-0.9-2.1-2.1v-15.9
			c0-1.2,0.9-2.1,2.1-2.1h4.6c12.2,0,26-5.1,30.9-18.5c0.3-0.8,1.1-1.4,2-1.4h4.3c1.2,0,2.1,0.9,2.1,2.1v16.9c0,1.2,0.9,2.1,2.1,2.1
			h2.8c1.2,0,2.1-0.9,2.1-2.1V96.8C179,95.7,178.1,94.7,176.9,94.7z M119,164.8c0,1.2-0.9,2.1-2.1,2.1h-5.6c-1.2,0-2.1-0.9-2.1-2.1
			v-41.1c0-1.2,0.9-2.1,2.1-2.1h5.6c1.2,0,2.1,0.9,2.1,2.1V164.8z M158.5,92.7c0,1.1-1,2.1-2.1,2.1h-35.3c-1.2,0-2.1,0.9-2.1,2.1v11
			c0,1.2,0.9,2.1,2.1,2.1h2.8c1.2,0,2.1-0.9,2.1-2.1v-4.1c0-1.2,0.9-2.1,2.1-2.1h25.1c1.7,0,2.7,1.9,1.8,3.2
			c-6,8.8-17.8,9.7-22.2,9.7h-21.4c-1.2,0-2.1-0.9-2.1-2.1V71.5c0-1.2,0.9-2.1,2.1-2.1h21.4c6,0,25.8,1.6,25.8,22.6
			C158.5,92.2,158.5,92.5,158.5,92.7z"/>
	</g>
</g>
</svg>
